<?xml version="1.0" encoding="utf-8"?>
<!-- Generator: Adobe Illustrator 18.1.1, SVG Export Plug-In . SVG Version: 6.00 Build 0)  -->
<!DOCTYPE svg PUBLIC "-//W3C//DTD SVG 1.1//EN" "http://www.w3.org/Graphics/SVG/1.1/DTD/svg11.dtd">
<svg version="1.1" xmlns="http://www.w3.org/2000/svg" xmlns:xlink="http://www.w3.org/1999/xlink" x="0px" y="0px"
	 viewBox="0 0 600 400" enable-background="new 0 0 600 400" xml:space="preserve">
<g id="Layer_2">
	<path fill="none" stroke="#000000" stroke-miterlimit="10" d="M261.3,53.7c0,0,2.4-10.8,5.4-10.8c3,0,141,39.2,141,39.2l12.7,9.6
		l1.7,5l-12.3,36l-33.3,89.7L333,337.7c0,0-10.2,17.7-37.1,10.7S171.3,300,171.3,300s-3-3.7-2-7.7S259.7,56,259.7,56h1.7L261.3,53.7
		z"/>
</g>
<g id="Layer_3">
	<path fill="none" stroke="#000000" stroke-miterlimit="10" d="M249.7,108.3l-18,48.3c-4.3,6.3,0,8.7,0,8.7S313.3,193.2,332,200
		c19,4,27.3-12.7,27.3-12.7s28.7-80.3,29.7-83c1-2.7-2-4.3-2-4.3L267.3,66L249.7,108.3z"/>
	<polygon fill="none" stroke="#000000" stroke-miterlimit="10" points="255.7,159.3 284,83.3 361.3,106.7 333,185.3 	"/>
	<line fill="none" stroke="#000000" stroke-miterlimit="10" x1="267.3" y1="73.7" x2="299" y2="82"/>
	<line fill="none" stroke="#000000" stroke-miterlimit="10" x1="268.3" y1="70.7" x2="300" y2="79"/>
	<line fill="none" stroke="#000000" stroke-miterlimit="10" x1="368" y1="100.3" x2="382.3" y2="104.3"/>
	<line fill="none" stroke="#000000" stroke-miterlimit="10" x1="366.7" y1="104.3" x2="380.7" y2="108.3"/>
	<path fill="none" stroke="#000000" stroke-miterlimit="10" d="M407.7,82L321,329c0,0-6.5,17-29,18.2"/>
	<polygon fill="none" stroke="#000000" stroke-miterlimit="10" points="261.3,53.7 402.5,96.9 413.5,104.3 414.5,102.3 403.5,94.1 
		261.6,52.5 	"/>
</g>
<g id="Layer_4">
	<path fill="none" stroke="#000000" stroke-miterlimit="10" d="M241.3,273.6l-14.9,1.7c-1.3,0.1-2.4-0.8-2.6-2.1l0,0
		c-0.1-1.3,0.8-2.4,2.1-2.6l14.9-1.7c1.3-0.1,2.4,0.8,2.6,2.1l0,0C243.5,272.3,242.6,273.4,241.3,273.6z"/>
	<path fill="none" stroke="#000000" stroke-miterlimit="10" d="M266,283l-14.9,1.7c-1.3,0.1-2.4-0.8-2.6-2.1l0,0
		c-0.1-1.3,0.8-2.4,2.1-2.6l14.9-1.7c1.3-0.1,2.4,0.8,2.6,2.1v0C268.2,281.6,267.3,282.8,266,283z"/>
	<ellipse fill="none" stroke="#000000" stroke-miterlimit="10" cx="295.8" cy="254.7" rx="9.5" ry="9.8"/>
	<path fill="none" stroke="#000000" stroke-miterlimit="10" d="M297.7,244.8c5.2,0,9.5,4.4,9.5,9.8s-4.3,9.8-9.5,9.8"/>
	<ellipse fill="none" stroke="#000000" stroke-miterlimit="10" cx="325.1" cy="251.1" rx="9.5" ry="9.8"/>
	<path fill="none" stroke="#000000" stroke-miterlimit="10" d="M326.9,241.3c5.2,0,9.5,4.4,9.5,9.8s-4.3,9.8-9.5,9.8"/>
	<polygon fill="none" stroke="#000000" stroke-miterlimit="10" points="212.8,212.5 222.5,215.5 226.8,204.2 236.2,208 231.8,221.2 
		241.8,224.7 238.7,234.8 228.5,231.5 223.8,243.2 214.5,240.3 219.3,228.3 207.5,224.7 	"/>
	<polyline fill="none" stroke="#000000" stroke-miterlimit="10" points="211.7,212.8 206.5,225.2 217,229.5 212.7,241.3 
		213.5,243.2 224.7,246.3 229.7,234.7 239.8,238 241.8,237.7 245.8,225.5 245.8,223.7 235.7,220.3 239.5,208 238.5,206.7 228.7,203 
		226.8,204.2 	"/>
	<ellipse fill="none" stroke="#000000" stroke-miterlimit="10" cx="224.7" cy="223.7" rx="4.3" ry="4.5"/>
</g>
</svg>
