<svg xmlns="http://www.w3.org/2000/svg" viewBox="0 0 600 400" enable-background="new 0 0 600 400"><path fill="none" stroke="#000" stroke-miterlimit="10" d="M261.3 53.7s2.4-10.8 5.4-10.8c3 0 141 39.2 141 39.2l12.7 9.6 1.7 5-12.3 36-33.3 89.7L333 337.7s-10.2 17.7-37.1 10.7S171.3 300 171.3 300s-3-3.7-2-7.7S259.7 56 259.7 56h1.7l-.1-2.3z"/><g fill="none" stroke="#000" stroke-miterlimit="10"><path d="M249.7 108.3l-18 48.3c-4.3 6.3 0 8.7 0 8.7S313.3 193.2 332 200c19 4 27.3-12.7 27.3-12.7s28.7-80.3 29.7-83c1-2.7-2-4.3-2-4.3L267.3 66l-17.6 42.3zM255.7 159.3l28.3-76 77.3 23.4-28.3 78.6zM267.3 73.7L299 82M268.3 70.7L300 79M368 100.3l14.3 4M366.7 104.3l14 4M407.7 82L321 329s-6.5 17-29 18.2"/><path d="M261.3 53.7l141.2 43.2 11 7.4 1-2-11-8.2-141.9-41.6z"/></g><g fill="none" stroke="#000" stroke-miterlimit="10"><path d="M241.3 273.6l-14.9 1.7c-1.3.1-2.4-.8-2.6-2.1-.1-1.3.8-2.4 2.1-2.6l14.9-1.7c1.3-.1 2.4.8 2.6 2.1.1 1.3-.8 2.4-2.1 2.6zM266 283l-14.9 1.7c-1.3.1-2.4-.8-2.6-2.1-.1-1.3.8-2.4 2.1-2.6l14.9-1.7c1.3-.1 2.4.8 2.6 2.1.1 1.2-.8 2.4-2.1 2.6z"/><ellipse cx="295.8" cy="254.7" rx="9.5" ry="9.8"/><path d="M297.7 244.8c5.2 0 9.5 4.4 9.5 9.8s-4.3 9.8-9.5 9.8"/><ellipse cx="325.1" cy="251.1" rx="9.5" ry="9.8"/><path d="M326.9 241.3c5.2 0 9.5 4.4 9.5 9.8s-4.3 9.8-9.5 9.8"/><path d="M212.8 212.5l9.7 3 4.3-11.3 9.4 3.8-4.4 13.2 10 3.5-3.1 10.1-10.2-3.3-4.7 11.7-9.3-2.9 4.8-12-11.8-3.6zM211.7 212.8l-5.2 12.4 10.5 4.3-4.3 11.8.8 1.9 11.2 3.1 5-11.6 10.1 3.3 2-.3 4-12.2v-1.8l-10.1-3.4 3.8-12.3-1-1.3-9.8-3.7-1.9 1.2"/><ellipse cx="224.7" cy="223.7" rx="4.3" ry="4.5"/></g></svg>