<svg xmlns="http://www.w3.org/2000/svg" viewBox="0 0 600 400" enable-background="new 0 0 600 400"><path d="M247.9 122.1c-.1.2.4.1.4.1 0-.1-.5-.1-.4-.1zM250.7 119.1l-.1.2s.2-.1.4-.3c.2-.1.4-.3.4-.3.1 0-.7.4-.7.4zM256.4 119.7c-.1-.4-.7-.6-1.3-.7-.6-.1-1.2-.1-1.8-.3l-.2-.2-.3.3c-.1.1-.2.3-.2.3.6 0 1.3-.1 2 0 .8.3 1.4.4 1.8.6zM258.6 122.5c0-.3.7.1-.6-.4 0 .1.1.1.1.1.1 0 .3.1.5.3zM258.1 122.2c-.5-.3.2.4 0 0zM260.5 123.5l-.8-.2c0 .2.6.6.3.6.8.4.7.2.5-.4zM261.5 123.6l-.4-.2c0 .1 0 .2.4.2zM260.2 123.1l.4.2.4.2c0-.2.1-.4-.4-.2.3-.2 0-.1-.4-.2zM259.9 122.7c-.3-.4-.7-.8.1-.5-.7-.4-1.1-.4-1.1-.3 0 .1.3.4 1 .8zM257 119.2s-.5-.5-.6-.4l-.6.1c.2 0 .4.1.7.2.3.1.5.2.5.1zM263.9 127.3c.2-.1.1-.5.2-.6l-.5-.4c.1.3.4.8.3 1zM264.1 126.7l.8.5c-.5-.7-.7-.7-.8-.5zM262.1 123.1s-.4-.1-.8-.3l-.8-.2s.1 0 .3.1c.2.1.4.1.6.2.4.2.9.4.9.4l-.2-.2zM265.9 130.1l-.6-.2 1 .5zM267.2 132.1c-.4-.2-.2.7-.5.4.4.5.8.9 1.2 1.2-.4-.3-.6-.9-.7-1.6zM268.5 134.4c-.2-.2-.4-.4-.7-.6.2.2.4.4.7.6zM265.8 128.5c0 .1-.1.3.1.8l.2-.5-.3-.3zM266 128.8c.2.4.3.6.4.7 0-.1-.1-.3-.4-.7zM265.8 128.4c0 .1 0 .1 0 0 0 .1 0 0 0 0zM263.6 125.1c.6.2 1.5 1 1-.2-.4-.1-.1.5-1 .2zM265.9 127.8l-.5-.9c-.1.1-.1.3-.4.2l.9.7zM266.3 128.1l-.4-.3.2.3zM268.1 132.7c.4.3.6.7.8 1.2-.2-.6-.4-1.1-.6-1.6-.2-.1-.5-.2-.2.4zM267.2 130.7c0 .1 0 .1 0 0 .1 0 .1 0 0 0zM270.8 138.9l.1-.1h-.1zM268.3 132.1c-.1-.4-.4-.6-.6-.8l.6.9c.1 0 .1 0 0-.1zM269.2 135.7c0-.2 0-.5-.1-.8 0 .2 0 .7.1.8zM267.2 131c0 .1 0 .1 0 0zM267.2 131c.2.2.3.3.5.4-.2-.2-.3-.4-.5-.6.1.1 0 .1 0 .2zM273.9 139.7c-.4 0-1.1-1-1-2.2-.6-.9-1.6.2-2.1 1.2.2 0 .3-.1.8.8.1-.4-.2-2.3.4-1.6.6 1.3.2 1.1.2 1.8.3-.7 1.1 1.5 1.8 1.1l-.5-1.1c.1 0 .4.4.4 0zM270.3 136.9l-.2-.4c.1.5.1.8 0 1.5.4.6.6.7.7.7 0 0-.1-.5-.3-1-.2-.5-.3-1-.3-1l.1.2zM269.4 134.8c.5.1 1.1 1 1.3.3-.5-1.1-.7-.7-1.1-1.3.9 1.8-.5-.4-.2 1-.2-.4-.3-.7-.5-1 .1.3.2.7.2 1v-.1c0-.1 0-.1 0 0 .2.1.3.1.3.1.1.6-.1.1-.2 0h-.1s.2.4.5.9c.3.4.5.9.5.9 0-.5-.3-.9-.7-1.8zM266.1 125.1v.1c.1.1.1.1 0-.1zM266.4 125.9c-.1-.1-.4-.1-.6-.5-.2-.4.2-.1.3-.2-.3-.2-.9-.6-.5.3l.1.1c.4.7.6 1.9.5 1.8.2-.5.3-.8.2-1.5zM268.4 130.3l1 1.4-.1-.9-.2.1c-.4-.9-.5-.6-.7-.6zM270.7 139.1h-.5l.9.7zM271.3 141.2h-.4l.4.5zM231.3 139.6l.6.5c-.3-.3-.5-.4-.6-.5zM227 137.9l-.1.2c.2-.1.3-.2.1-.2zM253.6 184.3c-.8-.2-1.6-.6-1.4-.1l.3.4c.4-.2.8-.3 1.1-.3zM225.4 169.4c0 .1 0 .2-.1.2.2.1.4.2.5.4 0-.1-.2-.3-.4-.6zM223.6 169.4v-1.1c-.1.3-.1.6 0 1.1zM237.9 161.6l.3.7c.2-1-.1-.6-.3-.7zM272 162.9c-.3.5-.5 1-.6 1.4.4-.6.9-1.1.6-1.4zM229.2 144.4c.1 0 .2-.1.2-.2-.2-.1-.2 0-.2.2zM270.9 166c.1-.1.1-.2.2-.3 0-.4.1-.9.3-1.4-.3.5-.6 1-.5 1.7zM189.3 153.1v-.2.2zM190.1 131.4c0 .2.1.5.1.9 0-.2 0-.5-.1-.9zM272.5 149.7c-.1-.5-.1-.1 0 0zM274 147.3c.1.1.1.2.2.2-.1-.1-.2-.1-.2-.2zM271.8 171.2c.1 0 .1 0 0 0zM272.6 149c0 .2-.1.4-.1.6 0-.1.1-.3.1-.6zM272.4 149.1v-.4c-.1 0-.1 0 0 .4zM272.5 150.3v-.7c0 .1 0 .1-.1.1.1.1.1.3.1.6zM211.4 182.8h-.1c-.5.2-.3.1.1 0zM241.6 189.2c0-.1 0-.1 0 0zM239.7 188.9c1-.3 1.3 0 1.9.2 0 0-.1-.3-.1-.7-.1-.3-.1-.7-.1-.7l-.8.6c-.5.3-.9.6-.9.6zM236.8 149.3v-1.4c1.1 1.3 1.2 2.6 1.4 1.2-.7.1-1.1-1.2-1.6-2.4s-1.1-2.4-1.8-2.2c0 0-.1-.9-.2-.9.1.3.2.2.3.5 0-.2 0-.4-.1-.6-.1-.2-.2-.4-.4-.5-.2-.3-.5-.4-.8-.5-.5-.3-1-.5-1.9-1.6-.6-.8-1-1.6-.5-1.2 0 0-.1-.1-.3-.2l-.6-.3c-.4-.2-.8-.3-.8-.3-.5-.3-.4-.5.1-.2 0 0-.7-.3-1.4-.5-.4-.1-.7-.1-1 0-.3 0-.5.1-.5.1-.2.2-.5.4-.8.7-.3.3-.5.6-.6.8-.5.3.2-.4 0-.4 0 0-.3.3-.4.7-.2.4-.3.8-.3.8-.5.2-.2-1.3.7-1.9-.9-.2-1.1.2-1.3.8-.1.3-.2.7-.4 1.2s-.4 1.2-.8 2l.4-2c-.5.3-.8.9-1.1 1.7-.2.9-.5 2-.9 3.2.1-.1.2-.5.4-.9s.4-.9.7-1.3c.4-.7.8-.8.8.3-.1.3-.2.6-.3 1.1-.1.4-.1 1 0 1.4-.5-.1-.5.7-.6 1.7l-.6-.1c0 1.1.4 1 .6 1.6-.2 1.1-.7 1.3-1.2 1.6-.3 1.8.9-1.2.8 1-.4 1.5-.2 2.6.1 4.5-.2 1.1-.4-.2-.6.2l.5 1c0 .2-.2.2-.3.1.2.8.6.1.8 1.3.7.3-1 2.7 0 4.2-.1.4-.4-.1-.6 0 .8 2.1.6 1.8 1.6 3.5l-.1 1.6c.2-1.2 1.1.1 1.9 1.1.1-.4.2-.8.3-1 0 0 .2.4.4.9l.4.8c0 .2-.3.1-.6-.1l.3.3c0 .7-.5.5-1 .1 0-.3.1-.5.2-.8-.5-.3-1-.7-1.4-.5.1.1.2.3.3.6-.1-.1-.2-.1-.3-.1 0 .1.1.2.4.5l-.5.6h.3s.1.7.2 1.3c.1.3.1.7.2.9.1.2.1.4.1.4 1.4 1.5 3 2.5 4.8 4.7-.8-.3-.8.3-1.3.7.1-1-1.5-1.8-2.1-3.3.3.8 0 .7-.2.6 0 0 .5.5.9 1.1l1 1c-.5.2 0 .7.3 1.4.5-1 1.8 1.3 2.8 1.9-.2.3-.7.3-1.5-.8.4 1.7 2.2.7 2.7 2.2-.2-.2-.3-.4-.5-.4.7.4 2.1 1.8 1.5 1.7l-.3-.2c.8.8 2.2 1.8 3.6 2.4 1.4.6 2.6.8 2.9.5 0 .1-.6.8-.8.9 0 0 .3 0 .8-.2.5-.1 1.1-.3 1.6-.5.3-.1.6-.2.8-.3.3-.1.5-.2.7-.3.4-.2.7-.3.7-.3-.5.6.5 2.6-1.4 2.6.5.2 1.2.5 2.4.4-.4-.1-.7-1.2-.3-1.2 1.2.9.9.6 2.5 1.4-.6-.2.1-1.3.9-1.3-.1.2.1 1.1-.2 1.2 0 0 .5-.3 1.1-.6l1-.6c-.5.2 0 1 .5 1.2-.1-.1.4-.1.9-.2.6-.1 1.2-.2 1.5-.3l-1-.1c.6-.1 1.1-.2 1.4-.4.3-.2.6-.5.8-.8.5-.6.9-1.1 2-1.4-.2.3-.2 1.6 1 1.3.2-.4.5-1.2.9-2.2.2-.5.5-.9.8-1.4.3-.5.6-.9 1-1.2l.5.1 1.1-1.1c-.1.6-.5 1.7-1.1 2.7-.5 1.1-1.3 2.1-1.9 2.7.9-.1.4.3 1.6-.3.6.1-.5.7-.9.9 0 0 .8-.3 1.5-.6.8-.3 1.5-.7 1.5-.7-.4-.5 1.8-1.9 1.4-2.3 0 0-.6.6-1.3 1.2-.7.6-1.4 1.1-1.4 1.1-.2-.3 0-.9.5-1.6.5-.7 1.2-1.5 2.2-2.1.6-.1.4 1.2.5 1.4.1-.4 1.5-1.6 1.7-1.6l-.5.9c1.2-.6 1-2 2.6-2.5.4-.3 1.7-.5 1.5-.9-1.2.1-2.9-1.5-3-2.2.1-.1.7-.3 1.2-.7.6-.4 1.3-.8 1.6-.9.5-.2.6.3.7.8.1.5.1.9.5.8-.1-.1 0-.6 0-.8.4-.3.3.5.9-.5-.4-.5 1.4-1.9-.2-.8.5-1 .8-.9 1.4-2.1-.6.1-.8-1.8-.5-2.8.1.1.4 0 .6-.1.5-1 .9-1.8 1.3-2.5.2-.4.4-.8.5-1.2.2-.4.3-.9.5-1.4.2-.1.7-1.1.9-.6 0-.3-.2-.7-.1-1.3.9-1.1-.3 1.5.7.7-.4-.2-.1-1.8-.2-2.8-.3.1-.4.6-.5 1.2-.1.6-.1 1.3 0 1.8-.8-.2-1.3-2-1.3-4.1 0-1.7.6-.6.6-1 .3-1.6 0-2.3-.3-2.9-.2-.6-.5-1.2-.1-2.5.6-1 1.1 0 1.5-.2.1 1.4-.4 2.1-.5 3.1l.2-.6.2-.6c.2.5.2 1.4 0 1.9.3-.4.4-1.8.5-3.4 0-.8 0-1.6.1-2.4 0-.8 0-1.6.1-2.2-.2-.4-.5-1.2-.6-.8l.1.8c-.4.7-.7-1.4-.8-.4-.2-.5-.4-1-.6-1.6-.2-.6-.3-1.2-.3-2l.6-.4c-.2.1-.2 1 0 1.4-.3-.6.5-2.4-.4-2.9l-.3 1.1c-.5-1-1.3-2.1-1.4-3.4-.5.7.1.3-.4 1.3.4-.5.5.3.6 1.1.1.7.2 1.4.6.7-.7 1-.1 1.7-.7 2.9.2-.1.3-.5.3.6.1 0 .1.1.2.2v.1-.1c.1-.3.2-.5.3-.6.5.5.6 2.2.9 2.8-.1.6-.2-.3-.4.1l.4.9c-.4.1-.7 1.7-1 .2v1.4c-.2.8-.4 1.8-.2 2.5-.1.6.4 1.6.1 1v2.2h-.1c-.3 2 0 4.4-1.4 6.4-.1.7-.2 1.4-.7 2.4l-.4.1c-.2.9-1.4 2.2-1.2 2.7-.3.1-.6.4-.9.7-.3.4-.6.8-.8 1.3-.2.5-.6 1-.8 1.4-.3.5-.5.8-.8 1.1l.4.4-.9 1.2c-.3.4-.7.9-1 1.4l.4.3c-.3.5-.9.9-1.6 1.4-.7.4-1.5.8-2.2 1.3 0-.2.4-.4.7-.5-1.2.2-2 .9-2.8 1.6-.8.7-1.8 1.4-2.8 1.4-.4.3-.7.4-1.1.4 0 0 .1 0 .1-.1 0 0-.1 0-.2.1h-.7c.2 0 .4.1.6 0-.3.1-.9.3-1.4.6l-.3-.4h-.1c-.6 0-.4.3 0 .6-.3.1-.5.3-.6.5-.6-.7-1.4.5-2.1-.2-.2.2-.8.3-1.5.5s-1.4.3-1.5.7c0-.1-.2-.2.1-.2-.6-.1-1.2-.2-1.8-.1l-.2-.6s-.4.2-.7.3c-.4.1-.7.3-.7.3-.8-.5-1-.8-.1-1.1-1 .2-1.4.1-1.8 0-.4-.1-.7 0-1.6 0l.2-.3c-.5-.2-1.7-.1-1.8-.6-.4-.7-1.8-1.5-3.3-2.7-1.4-1.2-2.9-2.9-3.5-4.6-.3.6-.4.2-.6-.3-.1-.5-.3-1.1-.7-1 .1-.3 0-.8.5-.4-1.1-1.4-.8-2.5-2-3.3.2-.3.5.2.6 0-.1-.1-.4-.4-.4-.6.1-.2.3.2.5.4-.7-1.6-1.5-1.5-2.3-1.4.1-1-.1-1.4-.8-2 .2-.4.3-1 .7.1-.1-.3-.2-1.3-.4-2.2-.2-.9-.4-1.7-.7-1.7.1-.2-.1-.9-.2-1.1-.1-1.5-.1-1.6-.2-3l-.1.4c-.8-.5-.2-1.2-.3-2.4h.1c.6-2.7-.3-1.2.5-3.8l-.5.1c-1-.3.7-2.3.5-3.9l-.3.5c-.3-.9 1.6-2.2 1.9-3 .1-.2.1.3.1.6.9-2.1-.6-.4-.5-2 .4-.2.8.5 1-.5.1-.1-.1-.3-.2-.8-.2-.5-.2-1.3.2-1.1-.2-.2-.5-.4-.5-1 .1-.4.7-.4 1.1-.1.4.3.7.6.9.2v.4c.4 0 1.1.8 1.6.9-.1.2-.2.4-.2.5v.2c0 .1.1.2.1.3.2.5.6 1 .9 1.5.7 1 1.3 2.1.5 2.3l.4 1.2c.1.3.2.6.2.9.1.2.1.4.1.4h-.2c.2 1.6.6 2.2 1 2.8-.1.4-.2.1-.3.1 0 .6-.1 1.1-.1 1.5v1c0 .6.3 1.2.5 2.3l-.5.2c.1.3-.2 1.2-.6 2.2-.2.5-.4 1.1-.6 1.7-.2.6-.4 1.2-.5 1.8 0 0-.1-.1-.1-.3-.3 1.3-1.2 2.6-2.2 3.6-.4.5-.9 1-1.1 1.4-.2.5-.4.9-.2 1.4l-.4.8c-.1.2-.2.4-.3.5l-.2.2c1.8-1.6.3.8 1.2.3-.6.8-2.2 1.3-1.4.4l.2-.1c-.3-.9-2.5 1.7-2.8 1.1-3.7 2.7-8.2 3.7-12.3 4l.5.7h-1.4c-.4-.2-.5-.6.5-.6-.6-.4-1.7.4-1.8.5-2-.4.8-.8.2-.9h-.8l.2.1c-.7.3-.8.6-2 .4-.8-.2-.3-.5-.6-.6 0 0-.1-.1-.5-.1l-.8-.2c-.4-.1-.8-.3-.8-.3l.2.4c.1.2.3.4.3.4-.9.1-1.6-.6-1 .3-.4-.7-1.9-1.4-2.9-2.5-1-1-1.7-2.5-1.8-2.9-.8-.9-1.2-2-1.6-3.5 0 .4-.6.8-.9-.5 1.4.1-.2-2.5.5-3.7-.4 1.1-1.2-3.5-1.6-1.8-.2-1.1.5-.2.5-1.1-1.2-2.4-1.2-5.6-2.1-8.6-.2 0-.3.6-.7 0l.5-1.8c-.2-.6-1.1-.3-.8-1.6-.1.2-.3.5-.4.1-.5-6.3-3.1-12.5-2.3-19-.2.9-.3.3-.4-.3 0 .4-.4 0-.7.2l.4-2.7c-.2-.1-.3-.4-.4-.6-.1-.2-.1-.4 0-.6 0-.2.2-.4.3-.5.1-.1.2 0 .1-.1 0 0-.1-.1-.2 0-.1 0-.2.2-.2.2 0-.2-.1-.3-.4-.3-.2 0-.6 0-.9.2-.6.3-1.1 1.1-1.5 1.1.2.4.3.7.3 1.2 0 .4-.1.9-.2 1.4-.2 1-.2 2 .5 3-.1.5-.4-.4-.5-.1.5.5.6 1.1.6 2.3l-.1-.1c.6 3.3.4 4.8.8 8.5l.4-.4c.1.8 0 1-.1 1.4.9.8-.4-2.2.6-1.5-.8 1.2 1.1 5.6.1 6.5.3 1.2.5-.5.7.7l-.2.4.4.2c.1.8-.2 1.3-.4 1.4 0-.2-.2-.5-.3-.7-.1 1.1.8 2.9.8 3.3l-.1-1.2c1 3.2 1.7 7.3 3.2 10.3l.1-.3c1.1 2.3.3 2 1.3 4.6l-.1-.1c.4.5.7 1.1.9 1.8-.5-.6-.1 1.4-.6.6 1.3 2.5.8 1.2 2.2 2.6l-.2.5c.6.4.7.4 1.5 1.6-.9-.9 0 1.1-1.1.1.5 1.6 1.6 2.6 2.5 3.1.9.5 1.6.8 2 1.7.9-.1.3-.6-.3-1-.7-.4-1.4-.9-1-.8-.2-.3.2-.3.7-.1.5.2 1.1.4 1.5.7.4.2.7.7 1.2 1.2s1.2 1 2.4 1.3h-.5c.9.5 1.9-.1 2.9.5.7-.6 1.5.1 1.7-.7 0 0-2.2.1-2.2 0 1.3-.1 2.5-.9 4.5-.6-.1.2-.7.4-1.2.5.6.2 1.2-.2 1.8 0-.1.8-2.7.4-4.1.8.3.2 1 .1 1.5 0s.8-.1.5.3c.5-.6 1.1-.5 1.8-.5s1.5 0 2.3-.5v.5c.3-.1.8-.4 1.2-.5l-.8.8c.3-.2.6-.3 1-.3.3-.1.7-.1 1-.1.7 0 1.4 0 1.9-.4-1.3.5-1.5.3-1.5.1 0-.2.2-.5-.4-.5 1.5-.7 2-.7 2.7-.5.3.1.6.1 1.1.1.5-.1 1.1-.2 1.9-.7-.4.3-1.9.6-1.2 0 .7-.2 1.6-.5 2.2-.5 2.2-1.4-.6-.2.2-1 1 .1 1-.8 1.7-1.6l.3.4c1.3-.7 1.2-1 1.2-1.3 0-.3-.1-.5 1-1.2l-.2.6-.2.6.5-.5c.2-.2.4-.5.4-.5l.2.6c.4-.7.7-1 1-1.4.3-.3.7-.7 1.2-1.1-.5 0-.5-.7.2-1.7.7-.5.1.7 1.1-.8 0 .5 0 1.1-.8 1.4.1.2 0 .5.1.7.4-.3.8-.7 1.1-1.2.3-.5.5-1 .7-1.2-.2.2-.3.4-.5.5 0 0 .2-.6.4-1.3.2-.6.3-1.3.3-1.3.4-.3.3.1.3.4.2-.5.2-.9.5-1.6.3.3.7.5.3 1.6 0 0 .1-.2.1-.4.1-.2.2-.5.2-.9.2-.6.3-1.3.3-1.3.2-.1.9-1.1.9-.7.8-1.3.3-3.5.9-5.3-.1-.1-.1-.3-.1-.7.1-.9.4-1.7.5-2.5.1-.9.1-1.8-.2-2.8 0 0 .2-.3.3-.6.1-.3.3-.6.3-.6-.3-1.6-.7 1.6-1.3-1-.5-1.8.5-.8.6-1.5-.2-.4-.7-1-1-1.7-.3-.7-.6-1.4-.6-2.4.2 1 .3 1.5.5 2zm-13.5-5.5c-.1-.6 0-1.8.3-2 .2.5.2.8.1 1-.1.3-.3.6-.4 1zm2.1 28.5c-.2-.2-.3-.6-.3-1.1.2.3.3.6.3 1.1zm47.6-17.6c-.2.7-.1.5 0 0zm.2-1.6c-.1-.2-.1-.1-.2-.1.1.1.1.5.1.8.1 0 .2-.2.1-.7zm-66.5 26.1l.3.2c-.7 0-.5-.1-.3-.2zM223.8 169.4c.1-.1.1-.2.2-.2-.1-.1-.2-.1-.2.2zM237.9 161.5c0 .1 0 .1.1.1l-.1-.1zM270.1 177.9c-.3.2-.5.3-.6.4 0 .1.2 0 .6-.4zM271.7 145.1l.3 1c-.1-.5 0-.7 0-.9-.1-.1-.3.2-.3-.1zM272.4 135.9c-.1-.1-.1-.3-.2-.4l-.2.1c.2.6.5.9.4.3zM273.1 143.9c.4-.1.1-.8-.1-1.4v.1c-.5-.1-.2.6.1 1.3zM273 142.3c-.1-.2-.1-.4-.1-.6-.3-.1 0 .2.1.6zM272.9 151.2c.1-.3-.5-.2-.4-.4-.5-.4.7 2.1.4.4zM274.3 143.1l-.4.3.5.3zM274.7 148.8v-1.2c-.1 0-.1-.1-.2-.3.1.7.1 1.5.2 1.5zM274.6 147.3c0-.4-.1-.7-.2-.9 0 .2.1.6.2.9zM274.7 144.6v.3l.1.9zM274.3 161.1l-.1 1.3c.1.2.3-.2.3-.6 0-.4 0-.9-.2-.7zM276.1 157.4c-.1.3-.2.4-.4.5l.6.1-.2-.6zM275.8 161.2c.2.2.1 1.9.4.3-.1-.2-.1-1.5-.4-.3zM267.5 178.4l.2-.2-.9-.6zM253.9 189.6c1.7-.2.2-.7 1.7-.8.3-.3-1.2.1-.9-.2-.9.5-1.4.5-.8 1zM254.7 188.6c.1-.1.3-.2.4-.3-.2.2-.3.2-.4.3zM190.4 128.6s.1-.1.2-.1h.2-.5c0-.1.1.1.1.1zM190.4 128.3s.4.3.4.2c0 0-.1 0-.2.1h-.3c.1 0 .2 0 .2-.1 0 0-.1-.1-.1-.2zM221.5 147l.1.1c.2-.1.2-.4.3-.8l-.4.7zM232.9 140.4l-.2-.3s0 .3.1.5v.5s0-.2.1-.4c-.1-.1 0-.3 0-.3zM238.8 152.7c-.1-.5-.3-1.1-.4-1.6.4 1.1-.3 1.8.4 1.6z"/></svg>