<?xml version="1.0" encoding="utf-8"?>
<!-- Generator: Adobe Illustrator 18.1.1, SVG Export Plug-In . SVG Version: 6.00 Build 0)  -->
<!DOCTYPE svg PUBLIC "-//W3C//DTD SVG 1.1//EN" "http://www.w3.org/Graphics/SVG/1.1/DTD/svg11.dtd">
<svg version="1.1" id="Layer_1" xmlns="http://www.w3.org/2000/svg" xmlns:xlink="http://www.w3.org/1999/xlink" x="0px" y="0px"
	 viewBox="0 0 600 400" enable-background="new 0 0 600 400" xml:space="preserve">
<g>
	<g>
		<path d="M143.1,128.4c1.1,13.6,2.2,27.3,5.9,40.5c2.5,8.7,6.5,21.7,16.9,23.4c10.6,1.7,17-9.9,19-18.5c2.7-11.5,0.5-23.6-5.8-33.4
			c-1-1.6-3.3-1.6-4.3,0c-7,10.8-3.6,25.7,1.5,36.5c4.5,9.6,14.3,20.5,26.1,15.6c10.7-4.4,14.3-18.2,14.6-28.6
			c0.3-12.4-4.1-24.4-12-33.8c-2.1-2.5-5.6,1.1-3.5,3.5c6.3,7.5,10,16.8,10.5,26.5c0.5,8.8-1.3,20.1-8.5,26
			c-9.6,7.9-19-3.7-22.8-11.8c-4.3-9.2-7.4-22.3-1.5-31.5c-1.4,0-2.9,0-4.3,0c5.2,8.1,7.4,17.7,5.8,27.3
			c-1.3,7.7-8.8,23.7-18.5,14.9c-6.4-5.9-8.5-17.1-10.2-25.2c-2.2-10.3-3-20.9-3.9-31.4C147.9,125.2,142.9,125.2,143.1,128.4
			L143.1,128.4z"/>
	</g>
</g>
</svg>
