<?xml version="1.0" encoding="utf-8"?>
<!-- Generator: Adobe Illustrator 18.1.1, SVG Export Plug-In . SVG Version: 6.00 Build 0)  -->
<!DOCTYPE svg PUBLIC "-//W3C//DTD SVG 1.1//EN" "http://www.w3.org/Graphics/SVG/1.1/DTD/svg11.dtd">
<svg version="1.1" id="Layer_1" xmlns="http://www.w3.org/2000/svg" xmlns:xlink="http://www.w3.org/1999/xlink" x="0px" y="0px"
	 viewBox="0 0 600 400" enable-background="new 0 0 600 400" xml:space="preserve">
<g>
	<g>
		<path d="M180.3,147.7c0.7,10.4,2.2,20.7,4.7,30.8c1.7,7.1,3.7,15.6,10.2,19.9c13.9,9.2,27.2-17.2,28.7-27.6
			c0.5-3.6,0.1-16.9-7.1-13.5c-2.7,1.3-2.8,5-3.2,7.5c-0.6,4.4-0.9,8.9-0.3,13.4c1,6.9,4.6,13.8,10.7,17.5
			c6.6,3.9,13.5,2.6,18.2-3.3c5.4-6.8,7.9-15.9,7.8-24.5c-0.1-5-1.1-19-8.1-19c-3.2,0-3.2,5,0,5c1,0,2.4,7.4,2.6,8.5
			c0.5,3.1,0.6,6.2,0.4,9.3c-0.6,6.3-2.8,13.9-7.4,18.6c-6.6,6.8-15-0.6-17.8-7.2c-1.4-3.3-1.8-6.9-1.8-10.4c0-3,1.9-8.3,0.4-10.4
			c3.9,5.6-1.7,16.7-4.7,21.6c-1.9,3.1-4.2,5.9-6.8,8.4c-4.4,4-8.9,3.6-12.3-1.4c-3.6-5.4-4.7-12.8-6-19c-1.6-7.9-2.7-15.9-3.2-23.9
			C185.1,144.5,180.1,144.5,180.3,147.7L180.3,147.7z"/>
	</g>
</g>
<g>
	<g>
		<path d="M254,154.9c-0.1,6.7,0.1,13.4,0.9,20.1c0.6,4.7,0.8,10.2,3.8,14.2c6.3,8.3,14.5,1.6,17.9-5.2c1.5-2.9-2.9-5.4-4.3-2.5
			c-1.7,3.4-4.6,8.8-9.1,5.1c-2.7-2.2-2.9-7.4-3.3-10.6c-0.9-7-1.1-14-1-21C259,151.7,254,151.7,254,154.9L254,154.9z"/>
	</g>
</g>
<g>
	<g>
		<path d="M254.1,145.9c0.1,0,0.3,0.1,0.4,0.1c0.1,0,0.1,0,0.2,0.1c0.2,0.1,0.1,0-0.3-0.1c0,0,0.5,0.3,0.1,0c-0.2-0.1-0.2-0.2-0.1,0
			c-0.2-0.1-0.3-0.3-0.3-0.5c-0.3-0.7,0-1.6,0.4-2.1c0.2-0.2,0.4-0.3,0.6-0.4c0.3-0.1,0.3-0.1,0.1-0.1c0.4-0.1,0.5-0.1,0.9,0
			c1.2,0.4,2,1.9,1.3,3.2c-0.3,0.3-0.6,0.6-0.9,0.9c-0.4,0.1-0.5,0.2-0.2,0.1c-0.5,0-0.5,0.1-0.3,0.1c-0.4-0.1-0.5-0.1-0.3,0
			c-0.4-0.2-0.5-0.2-0.3-0.1c0.5,0.3-0.3-0.4,0,0c-0.2-0.2-0.3-0.4-0.4-0.7c0,0.1,0,0.2,0.1,0.3c0.2,1.3,1.9,2.1,3.1,1.7
			c1.4-0.4,2-1.7,1.7-3.1c-0.3-1.9-2.3-3.2-4.2-3.1c-1.5,0.1-2.8,1-3,2.5c-0.2,1.1,0.4,2.3,1.4,2.8c2,1,4.7-0.1,4.8-2.6
			c0-2.1-1.8-3.4-3.6-3.8c-1.3-0.3-2.8,0.4-3.1,1.7C252.1,144.1,252.8,145.6,254.1,145.9L254.1,145.9z"/>
	</g>
</g>
<g>
	<g>
		<path d="M278.1,146.5c0.1,15,0.2,30,0.4,44.9c0,3.2,4.9,3.2,5,0c0.2-8.4,0.4-16.7,0.7-25.1c0.1-3.5,0.3-7.1,1.5-10.4
			c1.4-3.9,7.7-10,10.2-3.5c1.3,3.4,0.6,7.9,0.6,11.5c-0.1,3.7-0.2,7.5-0.2,11.2c0,4.9,0.7,10.7,6.1,12.5c4.5,1.5,9.4-0.9,11.9-4.7
			c3.5-5.2,3.5-12.4,4-18.4c1.4-17,1.3-34,1.2-51c0-3.2-5-3.2-5,0c-0.2,11.9-0.3,23.8,0.5,35.6c0.7,10.4,1.6,21.7,5.1,31.6
			c2.3,6.4,7.3,12.7,14.9,10.7c7.9-2.1,15.6-10.1,20.1-16.6c4.1-5.9,8.6-15.7,5.5-22.9c-2.8-6.6-10.9-5.9-15-0.9
			c-10.4,12.8-7.4,40.3,11.8,42.9c8.6,1.1,16.4-4.6,20.4-11.8c5.7-10.1,3.9-22.2,2.2-33.1c-0.4-2.8-5-2.1-4.9,0.7
			c0.5,12.8,1.8,25.5,4,38.2c0.5,3.2,5.3,1.8,4.8-1.3c-0.9-6-1.6-11.9-2.2-18c-0.5-5.5-1.6-11.8-0.7-17.3c0.4-2.5,0.5-3,3.2-3.5
			c2.8-0.5,3.2,0.2,4,3c0.7,2.3,0.5,4.9-0.1,7.1c-1.3,4.9-4.6,8.5-9.2,10.5c1.3,0.7,2.5,1.4,3.8,2.2c0-0.3,0.1-0.6,0.1-0.9
			c-0.4,0.7-0.8,1.4-1.2,2.2c-2.1,1.3,4,11.2,5.4,13c3.1,4.1,7.2,7.5,11.9,9.7c9.1,4.4,21.1,5,29.3-1.6c6.8-5.4,9-17.3,0.9-22.9
			c-7.3-5-17.5,1.5-16.2,10.1c0.5,3.2,5.3,1.8,4.8-1.3c-0.9-5.9,7.7-6.8,10.4-2.7c2.6,4,0.9,9.3-2.3,12.3c-6.8,6.3-18,5.2-25.6,1.1
			c-7.7-4.2-11.6-10.5-14.2-18.6c-1.5-4.6-7.5-6.3-8.3-0.4c-0.3,2.1,2.3,2.8,3.8,2.2c6.4-2.8,10.9-8.9,12-15.8
			c0.9-5.7-1-14.7-8.1-15.5c-7.8-0.8-9.6,8.2-9.4,14c0.3,10.8,1.5,21.7,3.1,32.4c1.6-0.4,3.2-0.9,4.8-1.3
			c-2.1-12.2-3.3-24.5-3.8-36.9c-1.6,0.2-3.3,0.4-4.9,0.7c1.4,9.2,3.2,20-1.3,28.7c-3.9,7.5-12.8,13.2-21,8.1
			c-8-5-9.1-15.2-7.2-23.6c0.6-2.4,1.3-5.1,2.5-7.3c1.9-3.5,7.5-6.2,8.2-0.3c0.4,3.8-1,8.1-2.6,11.4c-3.4,7.1-9.6,13.7-16.4,17.7
			c-10.4,6.1-13.1-6.5-14.6-14.1c-3.8-18.8-3.5-38.1-3.2-57.2c-1.7,0-3.3,0-5,0c0.1,16.7,0.2,33.4-1.1,50c-0.3,4.2-0.4,8.8-1.6,12.8
			c-1.3,4.4-6.6,10-10.1,3.8c-1.6-2.9-0.4-9.3-0.3-12.6c0.1-3.8,0.3-7.6,0.1-11.3c-0.2-4.4-1.4-9.5-6-11.3
			c-4.6-1.8-9.7,1.1-12.3,4.9c-3.2,4.5-3.7,10.4-3.9,15.7c-0.3,8.6-0.5,17.2-0.7,25.8c1.7,0,3.3,0,5,0c-0.1-15-0.2-30-0.4-44.9
			C283,143.3,278,143.3,278.1,146.5L278.1,146.5z"/>
	</g>
</g>
<g>
	<g>
		<path d="M308.3,147.7c6.2,5.9,15.5,7,23,2.7c2.8-1.6,0.3-5.9-2.5-4.3c-5.5,3.2-12.3,2.5-16.9-1.9
			C309.5,142,305.9,145.5,308.3,147.7L308.3,147.7z"/>
	</g>
</g>
</svg>
