<svg xmlns="http://www.w3.org/2000/svg" viewBox="0 0 600 400" enable-background="new 0 0 600 400"><path d="M180.3 147.7c.7 10.4 2.2 20.7 4.7 30.8 1.7 7.1 3.7 15.6 10.2 19.9 13.9 9.2 27.2-17.2 28.7-27.6.5-3.6.1-16.9-7.1-13.5-2.7 1.3-2.8 5-3.2 7.5-.6 4.4-.9 8.9-.3 13.4 1 6.9 4.6 13.8 10.7 17.5 6.6 3.9 13.5 2.6 18.2-3.3 5.4-6.8 7.9-15.9 7.8-24.5-.1-5-1.1-19-8.1-19-3.2 0-3.2 5 0 5 1 0 2.4 7.4 2.6 8.5.5 3.1.6 6.2.4 9.3-.6 6.3-2.8 13.9-7.4 18.6-6.6 6.8-15-.6-17.8-7.2-1.4-3.3-1.8-6.9-1.8-10.4 0-3 1.9-8.3.4-10.4 3.9 5.6-1.7 16.7-4.7 21.6-1.9 3.1-4.2 5.9-6.8 8.4-4.4 4-8.9 3.6-12.3-1.4-3.6-5.4-4.7-12.8-6-19-1.6-7.9-2.7-15.9-3.2-23.9-.2-3.5-5.2-3.5-5-.3zM254 154.9c-.1 6.7.1 13.4.9 20.1.6 4.7.8 10.2 3.8 14.2 6.3 8.3 14.5 1.6 17.9-5.2 1.5-2.9-2.9-5.4-4.3-2.5-1.7 3.4-4.6 8.8-9.1 5.1-2.7-2.2-2.9-7.4-3.3-10.6-.9-7-1.1-14-1-21 .1-3.3-4.9-3.3-4.9-.1zM254.1 145.9c.1 0 .3.1.4.1.1 0 .1 0 .2.1.2.1.1 0-.3-.1 0 0 .5.3.1 0-.2-.1-.2-.2-.1 0-.2-.1-.3-.3-.3-.5-.3-.7 0-1.6.4-2.1.2-.2.4-.3.6-.4.3-.1.3-.1.1-.1.4-.1.5-.1.9 0 1.2.4 2 1.9 1.3 3.2l-.9.9c-.4.1-.5.2-.2.1-.5 0-.5.1-.3.1-.4-.1-.5-.1-.3 0-.4-.2-.5-.2-.3-.1.5.3-.3-.4 0 0-.2-.2-.3-.4-.4-.7 0 .1 0 .2.1.3.2 1.3 1.9 2.1 3.1 1.7 1.4-.4 2-1.7 1.7-3.1-.3-1.9-2.3-3.2-4.2-3.1-1.5.1-2.8 1-3 2.5-.2 1.1.4 2.3 1.4 2.8 2 1 4.7-.1 4.8-2.6 0-2.1-1.8-3.4-3.6-3.8-1.3-.3-2.8.4-3.1 1.7-.1 1.3.6 2.8 1.9 3.1zM278.1 146.5c.1 15 .2 30 .4 44.9 0 3.2 4.9 3.2 5 0 .2-8.4.4-16.7.7-25.1.1-3.5.3-7.1 1.5-10.4 1.4-3.9 7.7-10 10.2-3.5 1.3 3.4.6 7.9.6 11.5-.1 3.7-.2 7.5-.2 11.2 0 4.9.7 10.7 6.1 12.5 4.5 1.5 9.4-.9 11.9-4.7 3.5-5.2 3.5-12.4 4-18.4 1.4-17 1.3-34 1.2-51 0-3.2-5-3.2-5 0-.2 11.9-.3 23.8.5 35.6.7 10.4 1.6 21.7 5.1 31.6 2.3 6.4 7.3 12.7 14.9 10.7 7.9-2.1 15.6-10.1 20.1-16.6 4.1-5.9 8.6-15.7 5.5-22.9-2.8-6.6-10.9-5.9-15-.9-10.4 12.8-7.4 40.3 11.8 42.9 8.6 1.1 16.4-4.6 20.4-11.8 5.7-10.1 3.9-22.2 2.2-33.1-.4-2.8-5-2.1-4.9.7.5 12.8 1.8 25.5 4 38.2.5 3.2 5.3 1.8 4.8-1.3-.9-6-1.6-11.9-2.2-18-.5-5.5-1.6-11.8-.7-17.3.4-2.5.5-3 3.2-3.5 2.8-.5 3.2.2 4 3 .7 2.3.5 4.9-.1 7.1-1.3 4.9-4.6 8.5-9.2 10.5 1.3.7 2.5 1.4 3.8 2.2 0-.3.1-.6.1-.9-.4.7-.8 1.4-1.2 2.2-2.1 1.3 4 11.2 5.4 13 3.1 4.1 7.2 7.5 11.9 9.7 9.1 4.4 21.1 5 29.3-1.6 6.8-5.4 9-17.3.9-22.9-7.3-5-17.5 1.5-16.2 10.1.5 3.2 5.3 1.8 4.8-1.3-.9-5.9 7.7-6.8 10.4-2.7 2.6 4 .9 9.3-2.3 12.3-6.8 6.3-18 5.2-25.6 1.1-7.7-4.2-11.6-10.5-14.2-18.6-1.5-4.6-7.5-6.3-8.3-.4-.3 2.1 2.3 2.8 3.8 2.2 6.4-2.8 10.9-8.9 12-15.8.9-5.7-1-14.7-8.1-15.5-7.8-.8-9.6 8.2-9.4 14 .3 10.8 1.5 21.7 3.1 32.4 1.6-.4 3.2-.9 4.8-1.3-2.1-12.2-3.3-24.5-3.8-36.9-1.6.2-3.3.4-4.9.7 1.4 9.2 3.2 20-1.3 28.7-3.9 7.5-12.8 13.2-21 8.1-8-5-9.1-15.2-7.2-23.6.6-2.4 1.3-5.1 2.5-7.3 1.9-3.5 7.5-6.2 8.2-.3.4 3.8-1 8.1-2.6 11.4-3.4 7.1-9.6 13.7-16.4 17.7-10.4 6.1-13.1-6.5-14.6-14.1-3.8-18.8-3.5-38.1-3.2-57.2h-5c.1 16.7.2 33.4-1.1 50-.3 4.2-.4 8.8-1.6 12.8-1.3 4.4-6.6 10-10.1 3.8-1.6-2.9-.4-9.3-.3-12.6.1-3.8.3-7.6.1-11.3-.2-4.4-1.4-9.5-6-11.3-4.6-1.8-9.7 1.1-12.3 4.9-3.2 4.5-3.7 10.4-3.9 15.7-.3 8.6-.5 17.2-.7 25.8h5c-.1-15-.2-30-.4-44.9-.3-3.4-5.3-3.4-5.2-.2zM308.3 147.7c6.2 5.9 15.5 7 23 2.7 2.8-1.6.3-5.9-2.5-4.3-5.5 3.2-12.3 2.5-16.9-1.9-2.4-2.2-6 1.3-3.6 3.5z"/></svg>